<svg width="14" height="8" viewBox="0 0 14 8" fill="none" xmlns="http://www.w3.org/2000/svg">
<path d="M13.6664 0.330431C14.1112 0.771006 14.1112 1.48532 13.6664 1.92589L7.8674 7.66956C7.42258 8.11014 6.70138 8.11014 6.25657 7.66956C5.81175 7.22899 5.81175 6.51467 6.25657 6.0741L12.0556 0.330431C12.5004 -0.110144 13.2216 -0.110144 13.6664 0.330431Z" fill="#1E1E1E"/>
<path d="M0.333613 0.330437C0.778432 -0.110139 1.49963 -0.110138 1.94444 0.330437L7.74343 6.07411C8.18825 6.51468 8.18825 7.22899 7.74343 7.66957C7.29861 8.11014 6.57742 8.11014 6.1326 7.66957L0.333613 1.9259C-0.111205 1.48532 -0.111205 0.771012 0.333613 0.330437Z" fill="#1E1E1E"/>
</svg>
