<svg width="133" height="133" viewBox="0 0 133 133" fill="none" xmlns="http://www.w3.org/2000/svg">
<path d="M4.19238 4.19238C9.26919 -0.884439 17.5003 -0.884438 22.5772 4.19238L128.643 110.258C133.72 115.335 133.72 123.566 128.643 128.643C123.566 133.72 115.335 133.72 110.258 128.643L4.19238 22.5772C-0.884439 17.5003 -0.884438 9.26919 4.19238 4.19238Z" fill="#1E1E1E"/>
<path d="M4.19238 128.643C9.26919 133.72 17.5003 133.72 22.5772 128.643L128.643 22.5772C133.72 17.5003 133.72 9.2692 128.643 4.19238C123.566 -0.884435 115.335 -0.884434 110.258 4.19238L4.19238 110.258C-0.884439 115.335 -0.884438 123.566 4.19238 128.643Z" fill="#1E1E1E"/>
</svg>
