<svg width="50" height="50" viewBox="0 0 50 50" fill="none" xmlns="http://www.w3.org/2000/svg">
<path d="M27.9459 25L33.8397 30.8917C34.2306 31.2826 34.4502 31.8128 34.4502 32.3656C34.4502 32.9185 34.2306 33.4487 33.8397 33.8396C33.4487 34.2305 32.9185 34.4501 32.3657 34.4501C31.8129 34.4501 31.2827 34.2305 30.8918 33.8396L25.0001 27.9459L19.1084 33.8396C18.7175 34.2305 18.1873 34.4501 17.6345 34.4501C17.0816 34.4501 16.5514 34.2305 16.1605 33.8396C15.7696 33.4487 15.55 32.9185 15.55 32.3656C15.55 31.8128 15.7696 31.2826 16.1605 30.8917L22.0543 25L16.1605 19.1084C15.7696 18.7174 15.55 18.1872 15.55 17.6344C15.55 17.0816 15.7696 16.5514 16.1605 16.1604C16.5514 15.7695 17.0816 15.5499 17.6345 15.5499C18.1873 15.5499 18.7175 15.7695 19.1084 16.1604L25.0001 22.0542L30.8918 16.1604C31.2827 15.7695 31.8129 15.5499 32.3657 15.5499C32.9185 15.5499 33.4487 15.7695 33.8397 16.1604C34.2306 16.5514 34.4502 17.0816 34.4502 17.6344C34.4502 18.1872 34.2306 18.7174 33.8397 19.1084L27.9459 25ZM25.0001 45.8334C13.4938 45.8334 4.16675 36.5063 4.16675 25C4.16675 13.4938 13.4938 4.16669 25.0001 4.16669C36.5063 4.16669 45.8334 13.4938 45.8334 25C45.8334 36.5063 36.5063 45.8334 25.0001 45.8334ZM25.0001 41.6667C29.4204 41.6667 33.6596 39.9107 36.7852 36.7851C39.9108 33.6595 41.6668 29.4203 41.6668 25C41.6668 20.5797 39.9108 16.3405 36.7852 13.2149C33.6596 10.0893 29.4204 8.33335 25.0001 8.33335C20.5798 8.33335 16.3406 10.0893 13.215 13.2149C10.0894 16.3405 8.33342 20.5797 8.33342 25C8.33342 29.4203 10.0894 33.6595 13.215 36.7851C16.3406 39.9107 20.5798 41.6667 25.0001 41.6667V41.6667Z" fill="black"/>
</svg>
