<svg width="81" height="120" viewBox="0 0 81 120" fill="none" xmlns="http://www.w3.org/2000/svg">
<path d="M71.7273 31.9555C71.7273 49.2019 57.7463 31.9555 40.5 31.9555C23.2536 31.9555 9.27271 49.2019 9.27271 31.9555C9.27271 14.7092 23.2536 0.728271 40.5 0.728271C57.7463 0.728271 71.7273 14.7092 71.7273 31.9555Z" fill="#F0D233"/>
<path d="M81 71.042C81 88.3361 62.8675 71.042 40.5 71.042C18.1325 71.042 0 88.3361 0 71.042C0 53.7479 18.1325 39.7283 40.5 39.7283C62.8675 39.7283 81 53.7479 81 71.042Z" fill="#77A0F2"/>
<path d="M70.9091 114.456C70.9091 131.702 55.9736 95.6374 38.7273 95.6374C21.4809 95.6374 9.27271 127.202 9.27271 109.956C9.27271 92.7092 23.2536 67.1374 40.5 67.1374C57.7463 67.1374 70.9091 97.2092 70.9091 114.456Z" fill="#77A0F2"/>
</svg>
