<svg width="46" height="51" viewBox="0 0 46 51" fill="none" xmlns="http://www.w3.org/2000/svg">
<path d="M39.5373 4.32937C34.2185 -0.989351 24.4903 0.0789389 17.8305 6.73871C14.1938 10.3754 12.1027 15.5351 12.0572 19.1491C12.0117 22.7403 12.6482 27.9909 8.9887 31.6503L0.942428 39.6739C0.0559745 40.5603 0.0559745 41.9923 0.942428 42.9015C1.82888 43.7879 3.26085 43.7879 4.17003 42.9015L12.1936 34.8552C15.853 31.1957 21.1036 31.8322 24.6948 31.7867C28.2861 31.7412 33.4685 29.6501 37.1052 26.0134C43.765 19.3763 44.856 9.64809 39.5373 4.32937V4.32937ZM18.626 25.2179C15.1484 21.7402 16.2394 14.7395 21.0354 9.94358C25.8313 5.14764 32.8093 4.05662 36.3097 7.53424C39.7873 11.0119 38.6963 18.0126 33.9003 22.8085C29.1044 27.6045 22.1264 28.6955 18.626 25.2179V25.2179ZM36.0824 37.31C37.287 37.31 38.4462 37.7873 39.2872 38.651C41.0601 40.4239 41.0601 43.3106 39.2872 45.0835C38.4462 45.9245 37.287 46.4018 36.0824 46.4018C34.8777 46.4018 33.7185 45.9245 32.8775 45.0608C31.1046 43.2879 31.1046 40.4012 32.8775 38.6283C33.7185 37.7873 34.8777 37.31 36.0824 37.31ZM36.0824 32.7641C34.2821 32.7605 32.5214 33.2916 31.0236 34.2902C29.5257 35.2888 28.3581 36.7097 27.669 38.3728C26.9799 40.0359 26.8003 41.8662 27.153 43.6315C27.5056 45.3969 28.3747 47.0177 29.6499 48.2884C31.4228 50.0613 33.7639 50.9477 36.0824 50.9477C37.8826 50.9513 39.6433 50.4202 41.1412 49.4216C42.639 48.423 43.8066 47.0021 44.4957 45.339C45.1848 43.6759 45.3644 41.8456 45.0117 40.0803C44.6591 38.3149 43.79 36.6941 42.5148 35.4234C41.67 34.5792 40.667 33.9098 39.5633 33.4535C38.4596 32.9971 37.2767 32.7629 36.0824 32.7641V32.7641Z" fill="black"/>
</svg>
