<svg width="53" height="39" viewBox="0 0 53 39" fill="none" xmlns="http://www.w3.org/2000/svg">
<path d="M26.5 2.25V37.25M26.5 2.25H50C50.197 2.25 50.392 2.2888 50.574 2.36418C50.756 2.43956 50.9214 2.55005 51.0607 2.68934C51.1999 2.82863 51.3104 2.99399 51.3858 3.17597C51.4612 3.35796 51.5 3.55302 51.5 3.75V35.75C51.5 35.947 51.4612 36.142 51.3858 36.324C51.3104 36.506 51.1999 36.6714 51.0607 36.8107C50.9214 36.9499 50.756 37.0604 50.574 37.1358C50.392 37.2112 50.197 37.25 50 37.25H26.5V2.25ZM26.5 2.25H3C2.60218 2.25 2.22064 2.40804 1.93934 2.68934C1.65804 2.97064 1.5 3.35218 1.5 3.75V35.75C1.5 36.1478 1.65804 36.5294 1.93934 36.8107C2.22064 37.092 2.60218 37.25 3 37.25H26.5V2.25Z" stroke="black" stroke-width="3"/>
<path d="M51.5 32.25C48.1848 32.25 45.0054 30.933 42.6612 28.5888C40.317 26.2446 39 23.0652 39 19.75C39 16.4348 40.317 13.2554 42.6612 10.9112C45.0054 8.56696 48.1848 7.25 51.5 7.25M26.5 27.25C24.5109 27.25 22.6032 26.4598 21.1967 25.0533C19.7902 23.6468 19 21.7391 19 19.75C19 17.7609 19.7902 15.8532 21.1967 14.4467C22.6032 13.0402 24.5109 12.25 26.5 12.25C28.4891 12.25 30.3968 13.0402 31.8033 14.4467C33.2098 15.8532 34 17.7609 34 19.75C34 21.7391 33.2098 23.6468 31.8033 25.0533C30.3968 26.4598 28.4891 27.25 26.5 27.25ZM1.5 32.25C4.81521 32.25 7.99463 30.933 10.3388 28.5888C12.683 26.2446 14 23.0652 14 19.75C14 16.4348 12.683 13.2554 10.3388 10.9112C7.99463 8.56696 4.81521 7.25 1.5 7.25V32.25Z" stroke="black" stroke-width="3" stroke-linecap="round" stroke-linejoin="round"/>
</svg>
