<svg width="50" height="50" viewBox="0 0 50 50" fill="none" xmlns="http://www.w3.org/2000/svg">
<path d="M22.5171 23.7348C22.4398 20.0703 21.6632 16.4543 20.2292 13.0812C11.0774 17.3547 4.35468 25.418 2.05665 34.9326C3.4015 38.0139 5.35176 40.7936 7.79163 43.1067C10.1119 35.0386 15.364 28.1292 22.5171 23.7348V23.7348ZM18.7979 10.1886C17.265 7.51775 15.3115 5.11158 13.0126 3.06267C3.84064 8.08203 -1.58188 18.4735 0.41377 29.4899C3.78017 21.1142 10.3315 14.1698 18.7979 10.1886ZM37.7062 26.829C38.573 16.7702 34.9546 6.92294 27.8792 0.180061C26.3975 0.00871774 22.6784 -0.374286 17.911 1.03678C23.7439 7.08104 27.1054 15.0882 27.3349 23.4848C30.547 25.2511 34.0674 26.3863 37.7062 26.829V26.829ZM25.1377 27.7866C22.0027 29.6899 19.2593 32.1733 17.0543 35.1039C25.3191 40.8792 35.6501 42.6733 45.0236 39.9217C47.0399 37.2203 48.4869 34.1377 49.277 30.8607C46.6116 31.5398 43.8735 31.8918 41.123 31.9089C35.6199 31.8988 30.1469 30.4877 25.1377 27.7866ZM15.23 37.8354C13.6979 40.4559 12.6396 43.3184 11.9946 46.3219C16.4656 49.0661 21.689 50.3282 26.9197 49.9282C32.1505 49.5282 37.1213 47.4865 41.123 44.0944C29.7438 45.7172 20.6323 41.5948 15.23 37.8354V37.8354ZM33.4025 1.49034C38.9762 8.58598 41.7177 17.7378 40.9214 27.0508C43.992 27.0573 47.0439 26.5741 49.9623 25.6196C49.9623 25.418 49.9926 25.2164 49.9926 25.0148C49.9926 14.1496 43.0683 4.94745 33.4025 1.49034V1.49034Z" fill="black"/>
</svg>
