<svg width="50" height="50" viewBox="0 0 50 50" fill="none" xmlns="http://www.w3.org/2000/svg">
<path d="M25 0C11.2151 0 0 11.2151 0 25C0 38.7849 11.2151 50 25 50C38.7849 50 50 38.7849 50 25C50 11.2151 38.7849 0 25 0ZM42.1875 36.5385H36.7524C36.584 36.5381 36.4186 36.4935 36.2729 36.4091C36.1271 36.3247 36.0061 36.2035 35.9219 36.0577L33.982 32.7308C33.8543 32.5132 33.8171 32.2543 33.8786 32.0096L35.6647 24.8077C35.7005 24.6626 35.7697 24.5278 35.8667 24.4141C35.9637 24.3004 36.0859 24.2109 36.2236 24.1526L39.601 22.7224C39.766 22.6524 39.9473 22.6299 40.1244 22.6575C40.3016 22.6851 40.4675 22.7617 40.6034 22.8786L45.607 27.1839C45.7303 27.2901 45.8247 27.4259 45.8812 27.5785C45.9378 27.7311 45.9547 27.8956 45.9303 28.0565C45.5159 30.8994 44.5227 33.6271 43.012 36.0709C42.9267 36.2134 42.8059 36.3314 42.6614 36.4133C42.5169 36.4953 42.3536 36.5384 42.1875 36.5385ZM10.399 22.732L13.7764 24.1623C13.9141 24.2205 14.0363 24.31 14.1333 24.4237C14.2303 24.5374 14.2995 24.6722 14.3353 24.8173L16.1214 32.0192C16.1829 32.2639 16.1457 32.5229 16.018 32.7404L14.0781 36.0577C13.9939 36.2035 13.8729 36.3247 13.7271 36.4091C13.5814 36.4935 13.416 36.5381 13.2476 36.5385H7.8125C7.64812 36.5386 7.48645 36.4965 7.34295 36.4164C7.19944 36.3362 7.07888 36.2206 6.99279 36.0805C5.48214 33.6368 4.48891 30.9091 4.07452 28.0661C4.05016 27.9052 4.06704 27.7407 4.12359 27.5881C4.18014 27.4355 4.2745 27.2997 4.39784 27.1935L9.40144 22.8882C9.53688 22.7722 9.70191 22.6962 9.87808 22.6686C10.0542 22.641 10.2346 22.663 10.399 22.732V22.732ZM41.2812 12.2464L39.1094 18.4219C39.0657 18.5481 38.9963 18.6638 38.9054 18.7617C38.8146 18.8596 38.7043 18.9375 38.5817 18.9904L35.0264 20.4964C34.8633 20.5654 34.6842 20.588 34.5091 20.5617C34.3339 20.5354 34.1693 20.4612 34.0337 20.3474L27.2716 14.6755C27.1636 14.5861 27.0764 14.4741 27.0162 14.3475C26.956 14.2208 26.9242 14.0825 26.9231 13.9423V9.90625C26.9232 9.74811 26.9623 9.59243 27.0369 9.45302C27.1115 9.3136 27.2194 9.19474 27.351 9.10697L32.4988 5.67668C32.6331 5.58701 32.7879 5.53263 32.9488 5.51855C33.1097 5.50448 33.2716 5.53117 33.4195 5.59615C36.3815 6.88806 39.0102 8.83808 41.1058 11.2981C41.2159 11.4267 41.2902 11.5821 41.321 11.7486C41.3518 11.9152 41.3381 12.0869 41.2812 12.2464V12.2464ZM17.5 5.67668L22.649 9.10697C22.7806 9.19474 22.8885 9.3136 22.9631 9.45302C23.0377 9.59243 23.0768 9.74811 23.0769 9.90625V13.9423C23.0769 14.0828 23.0461 14.2215 22.9868 14.3488C22.9274 14.4761 22.8408 14.5888 22.7332 14.6791L15.9712 20.351C15.8355 20.4648 15.6709 20.539 15.4958 20.5653C15.3206 20.5916 15.1415 20.569 14.9784 20.5L11.4183 18.9904C11.2949 18.9381 11.1838 18.8607 11.0921 18.763C11.0004 18.6653 10.9301 18.5495 10.8858 18.4231L8.71394 12.2476C8.6575 12.0875 8.64445 11.9153 8.67612 11.7485C8.70778 11.5818 8.78304 11.4263 8.89423 11.2981C10.991 8.8356 13.6218 6.88386 16.5865 5.59135C16.7339 5.52834 16.8946 5.50314 17.0541 5.51804C17.2136 5.53295 17.3669 5.58748 17.5 5.67668V5.67668ZM19.5805 45.0349L17.2091 39.0625C17.1549 38.9267 17.1324 38.7804 17.1432 38.6346C17.154 38.4888 17.1979 38.3474 17.2716 38.2212L19.095 35.0962C19.1792 34.9503 19.3002 34.8291 19.446 34.7448C19.5917 34.6604 19.7571 34.6158 19.9255 34.6154H30.0745C30.2429 34.6158 30.4083 34.6604 30.554 34.7448C30.6998 34.8291 30.8208 34.9503 30.905 35.0962L32.7296 38.2212C32.8035 38.3473 32.8476 38.4887 32.8586 38.6345C32.8697 38.7803 32.8473 38.9266 32.7933 39.0625L30.4387 45.0325C30.3811 45.1784 30.2887 45.3081 30.1695 45.4101C30.0503 45.5121 29.9079 45.5834 29.7548 45.6178C26.6304 46.3349 23.3841 46.3349 20.2596 45.6178C20.1076 45.583 19.9664 45.5117 19.8481 45.4101C19.7298 45.3086 19.638 45.1798 19.5805 45.0349V45.0349Z" fill="black"/>
</svg>
