<svg width="51" height="51" viewBox="0 0 51 51" fill="none" xmlns="http://www.w3.org/2000/svg">
<path d="M8.1515 43.2281C12.8913 47.9611 19.1692 50.5662 25.8374 50.5662C32.5056 50.5662 38.7861 47.9611 43.5233 43.2281C53.2754 33.4899 53.2754 17.6449 43.5233 7.90419C38.7861 3.17368 32.5031 0.566162 25.8374 0.566162C19.1717 0.566162 12.8888 3.17368 8.1515 7.90669C-1.60063 17.6424 -1.60063 33.4899 8.1515 43.2281V43.2281ZM26.6103 5.60138C30.7876 5.75152 34.8099 7.21865 38.1007 9.7924L25.8374 22.0358L22.1857 18.3892C25.0895 14.6952 26.6678 10.1271 26.6103 5.60138V5.60138ZM18.609 14.8176L13.5766 9.7924C15.9391 7.94318 18.6912 6.65364 21.6254 6.02098C21.5879 9.10805 20.5124 12.2076 18.609 14.8176ZM15.0473 18.3243C12.4994 20.0625 9.4813 20.9834 6.39567 20.9643C7.04557 18.1856 8.28959 15.5801 10.0424 13.3265L15.0473 18.3243ZM5.85541 25.9321C6.048 25.9371 6.24059 25.967 6.43319 25.967C10.8345 25.9811 15.1192 24.5546 18.6315 21.9059L22.3007 25.5674L10.0424 37.8083C7.39705 34.406 5.92791 30.2388 5.85541 25.9321V25.9321ZM36.605 32.788C39.2113 30.8948 42.3077 29.8209 45.3792 29.7759C44.7535 32.7018 43.4735 35.4485 41.6349 37.8108L36.605 32.788ZM38.0982 41.3424C35.8429 43.1029 33.2328 44.3554 30.4471 45.0139C30.4189 41.9213 31.3416 38.8945 33.0908 36.3422L38.0982 41.3424V41.3424ZM25.4822 45.5534C21.1591 45.4847 16.9771 44.0059 13.5741 41.3424L25.8374 29.0991L29.4966 32.7531C26.7378 36.3597 25.3472 40.9103 25.4822 45.5534ZM45.8019 24.7981C41.2822 24.7532 36.7151 26.3217 33.0258 29.2139L29.3741 25.5674L41.6324 13.3265C44.191 16.62 45.6494 20.6326 45.8019 24.7981V24.7981Z" fill="black"/>
</svg>
