<svg width="51" height="51" viewBox="0 0 51 51" fill="none" xmlns="http://www.w3.org/2000/svg">
<path d="M47.5668 2.56831C46.0869 1.08839 41.885 0.00488281 36.5732 0.00488281C28.4337 0.00488281 17.6778 2.54188 10.199 10.0207C-2.19532 22.4415 -1.03252 43.6888 2.69369 47.4415C4.17361 48.9214 8.37551 50.0049 13.6874 50.0049C21.8269 50.0049 32.5827 47.4679 40.0616 39.989C52.4559 27.5683 51.2931 6.32095 47.5668 2.56831V2.56831ZM8.50765 41.6275C10.1726 36.6328 14.2159 28.4404 21.3776 21.2787C28.4601 14.1962 36.6525 10.1 41.7265 8.38226C40.0616 13.377 36.0182 21.5694 28.8301 28.7311C21.8005 35.8136 13.6081 39.9098 8.50765 41.6275V41.6275ZM13.9252 13.7998C20.9019 6.82307 30.68 5.55457 35.1461 5.36958C29.7286 7.85372 23.3597 11.8706 17.6778 17.5525C12.6241 22.636 8.50074 28.5661 5.49496 35.0736C5.73281 28.5197 7.79412 19.9045 13.9252 13.7998V13.7998ZM36.3353 36.21C29.3586 43.1867 19.5806 44.4552 15.1144 44.6402C20.532 42.156 26.9009 38.1391 32.5827 32.4573C38.2909 26.7491 42.2814 20.3537 44.792 14.9362C44.5277 21.4901 42.4664 30.1053 36.3353 36.21V36.21Z" fill="black"/>
</svg>
