<svg width="177" height="109" viewBox="0 0 177 109" fill="none" xmlns="http://www.w3.org/2000/svg">
<path d="M0 13C0 5.8203 5.8203 0 13 0H163C170.18 0 176 5.8203 176 13C176 20.1797 170.18 26 163 26H13C5.8203 26 0 20.1797 0 13Z" fill="#1E1E1E"/>
<path d="M0.417786 54.4178C0.417786 61.5975 6.23809 67.4178 13.4178 67.4178H163.418C170.597 67.4178 176.418 61.5975 176.418 54.4178C176.418 47.2381 170.597 41.4178 163.418 41.4178H13.4178C6.23808 41.4178 0.417786 47.2381 0.417786 54.4178Z" fill="#1E1E1E"/>
<path d="M0 96C0 103.18 5.8203 109 13 109H163C170.18 109 176 103.18 176 96C176 88.8203 170.18 83 163 83H13C5.8203 83 0 88.8203 0 96Z" fill="#1E1E1E"/>
</svg>
